<svg width="47" height="40" viewBox="0 0 47 40" fill="none" xmlns="http://www.w3.org/2000/svg">
<path d="M37.825 5.20929C43.1708 5.20929 46.3259 8.51694 46.3259 14.179H39.7676V14.2367C36.7239 14.2367 34.2565 16.8234 34.2565 20.0143C34.2565 23.2052 36.7239 25.7919 39.7676 25.7919H46.3259V26.3118C46.3259 31.9016 43.1708 35.2093 37.825 35.2093H23.8268C18.481 35.2093 15.3259 31.9016 15.3259 26.3118V14.1067C15.3259 8.51694 18.481 5.20929 23.8268 5.20929H37.825ZM45.1685 16.6633C45.8077 16.6633 46.3259 17.2065 46.3259 17.8766V22.0942C46.3184 22.761 45.8046 23.2997 45.1685 23.3075H39.8916C38.3508 23.3292 37.0034 22.2232 36.6539 20.6498C36.4788 19.6731 36.7245 18.6652 37.3251 17.8963C37.9257 17.1274 38.8197 16.6761 39.7676 16.6633H45.1685ZM40.5116 18.6132H40.0019C39.6889 18.6094 39.3875 18.737 39.1648 18.9677C38.9422 19.1983 38.817 19.5128 38.817 19.841C38.8169 20.5294 39.3452 21.0897 40.0019 21.0976H40.5116C41.166 21.0976 41.6965 20.5414 41.6965 19.8554C41.6965 19.1694 41.166 18.6132 40.5116 18.6132ZM31.4183 11.6946H22.6694C22.0204 11.6946 21.4921 12.2419 21.4845 12.9223C21.4845 13.6107 22.0128 14.171 22.6694 14.179H31.4183C32.0727 14.179 32.6032 13.6228 32.6032 12.9368C32.6032 12.2507 32.0727 11.6946 31.4183 11.6946Z" fill="#9654F4"/>
</svg>
