<svg width="308" height="302" viewBox="0 0 308 302" fill="none" xmlns="http://www.w3.org/2000/svg">
<g clip-path="url(#clip0_110_100)">
<path d="M83.0367 227.655L83.1755 227.974L83.4947 227.835L129.577 207.798L129.896 207.659L129.757 207.34L128.542 204.546C127.967 203.223 126.875 202.192 125.508 201.678C124.142 201.163 122.614 201.207 121.259 201.796L84.7775 217.659C83.4228 218.248 82.3487 219.336 81.7932 220.685C81.2376 222.036 81.2466 223.538 81.8218 224.861L83.0367 227.655ZM131.377 211.066L131.238 210.747L130.919 210.885L84.837 230.923L84.5179 231.061L84.6566 231.381L92.3513 249.077C92.9265 250.4 94.019 251.431 95.3856 251.946C96.7516 252.46 98.2796 252.416 99.6343 251.827L136.116 235.964C137.471 235.375 138.545 234.288 139.1 232.938C139.656 231.587 139.647 230.085 139.072 228.762L131.377 211.066ZM78.6199 226.253C77.6915 224.118 77.6744 221.688 78.5761 219.497C79.4779 217.305 81.2251 215.532 83.4351 214.572L119.917 198.709C122.127 197.748 124.615 197.679 126.833 198.514C129.05 199.349 130.816 201.019 131.744 203.154L142.274 227.37C143.202 229.505 143.219 231.935 142.318 234.127C141.416 236.318 139.668 238.091 137.458 239.052L100.977 254.914C98.7667 255.875 96.2787 255.944 94.0609 255.109C91.8435 254.274 90.0779 252.605 89.1494 250.469L78.6199 226.253ZM122.616 228.545L128.376 226.04C128.804 225.854 129.284 225.841 129.71 226.002C130.135 226.162 130.472 226.481 130.648 226.888C130.825 227.294 130.829 227.758 130.656 228.178C130.483 228.599 130.146 228.941 129.719 229.127L123.958 231.632C123.531 231.818 123.051 231.83 122.625 231.67C122.199 231.51 121.863 231.191 121.686 230.784C121.51 230.378 121.506 229.914 121.679 229.494C121.852 229.073 122.188 228.731 122.616 228.545Z" fill="#6200EE" stroke="#6200EE" stroke-width="0.696069"/>
</g>
<path d="M220.976 216.941L219.398 222.979C221.346 223.441 227.357 225.282 228.246 221.876C229.174 218.323 222.925 217.405 220.976 216.941ZM223.13 208.7L221.699 214.176C223.322 214.563 228.324 216.137 229.135 213.038C229.979 209.806 224.753 209.086 223.13 208.7ZM223.266 191.649C218.025 191.649 212.901 193.115 208.543 195.862C204.185 198.609 200.789 202.514 198.783 207.082C196.777 211.65 196.253 216.677 197.275 221.526C198.298 226.376 200.822 230.83 204.528 234.327C208.234 237.823 212.956 240.204 218.096 241.169C223.237 242.133 228.565 241.638 233.407 239.746C238.249 237.854 242.388 234.649 245.3 230.538C248.212 226.427 249.766 221.594 249.766 216.649C249.766 213.366 249.081 210.115 247.749 207.082C246.417 204.049 244.465 201.293 242.004 198.971C239.544 196.65 236.622 194.808 233.407 193.552C230.192 192.296 226.746 191.649 223.266 191.649ZM234.815 213.087C234.759 214.047 234.369 214.962 233.705 215.69C233.041 216.418 232.141 216.919 231.144 217.115C231.799 217.367 232.392 217.744 232.885 218.222C233.378 218.701 233.761 219.27 234.009 219.895C234.257 220.52 234.365 221.187 234.327 221.853C234.288 222.52 234.104 223.171 233.785 223.767C232.234 227.998 228.547 228.355 223.645 227.469L222.455 232.019L219.58 231.335L220.755 226.847C220.009 226.67 219.248 226.483 218.464 226.28L217.285 230.789L214.414 230.105L215.603 225.547C214.932 225.383 214.25 225.209 213.554 225.043L209.813 224.153L211.24 221.013C211.24 221.013 213.358 221.551 213.33 221.511C213.461 221.551 213.6 221.565 213.738 221.554C213.876 221.542 214.01 221.505 214.133 221.445C214.255 221.384 214.364 221.301 214.452 221.201C214.54 221.1 214.607 220.984 214.647 220.859L217.873 208.515C217.915 208.137 217.798 207.758 217.547 207.46C217.297 207.162 216.933 206.968 216.534 206.92C216.579 206.891 214.445 206.424 214.445 206.424L215.21 203.495L219.175 204.439L219.172 204.453C219.768 204.595 220.382 204.729 221.008 204.865L222.186 200.36L225.059 201.044L223.905 205.46C224.676 205.628 225.452 205.798 226.208 205.977L227.354 201.59L230.229 202.274L229.052 206.78C232.681 207.973 235.336 209.761 234.815 213.087Z" fill="#8133F1"/>
<path d="M261.979 301.489C261.979 301.589 212.023 301.676 150.421 301.676C88.8179 301.676 38.8407 301.589 38.8407 301.489C38.8407 301.388 88.7891 301.302 150.421 301.302C212.052 301.302 261.979 301.395 261.979 301.489Z" fill="#263238"/>
<path d="M238.742 18.4384L235.037 19.7621L233.447 14.9205C230.527 5.99266 221.217 1.25177 212.664 4.26608C204.11 7.2804 199.556 17.0715 202.477 25.9993L204.067 30.841L200.347 32.1719C198.929 32.7219 197.777 33.7974 197.132 35.1747C196.486 36.5521 196.396 38.1253 196.88 39.5674L207.189 71.0701C207.403 71.784 207.758 72.4476 208.234 73.0215C208.709 73.5953 209.295 74.0678 209.957 74.4107C210.619 74.7536 211.343 74.96 212.086 75.0177C212.829 75.0753 213.576 74.9831 214.282 74.7463L252.677 61.0128C254.114 60.4637 255.282 59.3787 255.935 57.986C256.589 56.5933 256.677 55.0015 256.181 53.5454L245.864 22.0426C245.645 21.3307 245.284 20.6704 244.804 20.1009C244.323 19.5315 243.733 19.0647 243.069 18.7283C242.404 18.3919 241.678 18.1929 240.935 18.1431C240.192 18.0933 239.446 18.1937 238.742 18.4384ZM209.477 23.4742C208.689 21.1529 208.831 18.6168 209.871 16.3973C210.912 14.1779 212.771 12.4473 215.059 11.5681C216.189 11.1815 217.385 11.0264 218.577 11.1122C219.768 11.198 220.929 11.5229 221.992 12.0674C223.055 12.6119 223.997 13.3649 224.763 14.2815C225.528 15.1981 226.101 16.2596 226.448 17.4024L228.03 22.244L211.059 28.3158L209.477 23.4742ZM231.059 51.4304L233.692 59.4733C233.74 59.6346 233.725 59.8083 233.648 59.9583C233.572 60.1084 233.441 60.2232 233.282 60.279L229.591 61.5956C229.444 61.6363 229.288 61.6186 229.153 61.5462C229.019 61.4737 228.918 61.3522 228.872 61.2071L226.217 53.2001C224.754 53.1203 223.349 52.5953 222.192 51.6953C221.035 50.7953 220.18 49.5633 219.743 48.1643C219.117 46.3146 219.231 44.2946 220.061 42.5272C220.891 40.7598 222.373 39.3821 224.196 38.6825C225.096 38.375 226.049 38.2518 226.997 38.3203C227.946 38.3888 228.871 38.6476 229.718 39.0813C230.564 39.515 231.315 40.1147 231.925 40.8446C232.535 41.5745 232.991 42.4197 233.267 43.3298C233.73 44.7511 233.769 46.2764 233.378 47.7191C232.987 49.1617 232.183 50.459 231.066 51.4519L231.059 51.4304Z" fill="#9654F4"/>
<path d="M234.872 19.6758C234.872 19.7765 228.001 22.3592 219.455 25.431C210.908 28.5029 203.937 30.9705 203.901 30.8985C203.865 30.8266 210.772 28.2223 219.325 25.1433C227.879 22.0642 234.836 19.5823 234.872 19.6758Z" fill="#263238"/>
<path d="M243.03 20.9995C243.062 21.0619 243.088 21.1269 243.109 21.1937C243.166 21.3376 243.231 21.5246 243.318 21.7548C243.505 22.28 243.764 23.0066 244.087 23.913L246.85 31.956C248.001 35.366 249.375 39.4091 250.9 43.8981C251.62 46.1499 252.468 48.4952 253.26 50.9627C253.683 52.2343 253.866 53.5737 253.799 54.9123C253.738 55.6084 253.54 56.2857 253.217 56.905C252.871 57.5223 252.409 58.067 251.857 58.5093C250.745 59.3206 249.512 59.9496 248.202 60.3726L244.497 61.7035L237.483 64.2142L225.606 68.4443L217.584 71.2644L215.426 71.9838L214.851 72.1708C214.789 72.1982 214.724 72.2152 214.656 72.2212C214.656 72.2212 214.714 72.2212 214.836 72.1348L215.397 71.9118L217.556 71.0989L225.534 68.1637L237.39 63.8473L244.39 61.315L248.094 59.9769C249.367 59.5711 250.565 58.9613 251.641 58.1712C252.155 57.7608 252.585 57.2552 252.907 56.682C253.212 56.1092 253.396 55.4799 253.447 54.8331C253.513 53.5434 253.337 52.2526 252.929 51.0275C252.152 48.5815 251.332 46.2146 250.591 43.9629C249.094 39.4666 247.713 35.4092 246.62 31.9992C245.526 28.5892 244.605 25.8482 243.972 23.9202C243.67 22.9778 243.44 22.244 243.253 21.7117L243.08 21.1361C243.058 21.0925 243.042 21.0467 243.03 20.9995Z" fill="#263238"/>
<path d="M222.771 11.0789C222.771 11.0789 222.39 10.8918 221.685 10.6041C220.68 10.2179 219.617 10.0039 218.541 9.97099C216.946 9.9163 215.359 10.2161 213.894 10.8487C212.112 11.6364 210.589 12.9105 209.498 14.5248C208.401 16.1345 207.812 18.0368 207.808 19.9851C207.823 21.582 208.065 23.1686 208.527 24.6972C208.901 26.0066 209.29 27.0497 209.549 27.7763C209.702 28.1454 209.827 28.5253 209.923 28.913C209.718 28.5679 209.547 28.2041 209.412 27.8267C209.117 27.1072 208.693 26.0857 208.275 24.7692C207.763 23.2245 207.484 21.6121 207.448 19.9851C207.429 17.9632 208.032 15.9842 209.175 14.3162C210.303 12.6429 211.889 11.3294 213.743 10.5321C215.254 9.89605 216.89 9.61546 218.527 9.712C219.626 9.76803 220.706 10.024 221.714 10.4674C221.983 10.5917 222.243 10.7359 222.491 10.899C222.593 10.944 222.688 11.0047 222.771 11.0789Z" fill="#263238"/>
<path d="M223.102 39.2292C223.217 39.1597 223.337 39.0995 223.462 39.0494C223.822 38.8869 224.195 38.7545 224.577 38.6537C225.183 38.4747 225.809 38.3685 226.44 38.3372C227.299 38.291 228.159 38.4208 228.966 38.7185C230.807 39.3659 232.498 41.2436 233.332 43.7543C233.732 45.1017 233.732 46.5363 233.332 47.8837C232.889 49.3461 232.093 50.6774 231.016 51.7613L231.059 51.5671C232.016 54.1929 233.059 57.0417 234.138 60.0129L234.203 60.1927L234.023 60.2575L232.375 60.8042L228.778 62.0056L228.599 62.0632L228.541 61.8833C227.555 58.905 226.476 56.1281 225.663 53.4015L225.822 53.5238C224.415 53.407 223.074 52.8791 221.966 52.0059C220.963 51.2333 220.14 50.2513 219.556 49.1283C219.028 48.1323 218.766 47.0176 218.793 45.8909C218.826 44.7395 219.114 43.6096 219.635 42.5823C220.156 41.555 220.898 40.6557 221.807 39.9486C222.182 39.6448 222.602 39.402 223.052 39.2292C222.646 39.4703 222.252 39.7321 221.872 40.0134C220.873 40.8586 220.108 41.946 219.649 43.1716C219.256 44.0958 219.071 45.0956 219.11 46.0994C219.149 47.1031 219.409 48.0859 219.872 48.9772C220.447 50.0576 221.25 51.0002 222.225 51.7397C223.282 52.5697 224.561 53.0701 225.901 53.1785H226.023L226.059 53.2864C226.85 55.9626 227.937 58.7611 228.937 61.7538L228.699 61.6387L232.296 60.4373L233.937 59.8834L233.821 60.128C232.75 57.1568 231.714 54.3008 230.764 51.675V51.5671L230.85 51.4807C231.896 50.4418 232.676 49.166 233.124 47.7614C233.505 46.4725 233.505 45.1007 233.124 43.8118C232.34 41.3946 230.721 39.5602 228.966 38.9127C228.189 38.6131 227.359 38.4736 226.527 38.5026C225.905 38.5169 225.287 38.6013 224.685 38.7544C223.613 39.0206 223.11 39.2652 223.102 39.2292Z" fill="#263238"/>
<path d="M200.865 246.951L129.004 246.62C124.854 246.597 120.883 244.928 117.962 241.979C115.042 239.031 113.412 235.043 113.429 230.893L114.191 50.7469C114.2 48.6909 114.613 46.6567 115.409 44.7606C116.204 42.8645 117.365 41.1437 118.825 39.6966C120.286 38.2494 122.017 37.1043 123.92 36.3267C125.824 35.549 127.862 35.1542 129.918 35.1646L201.772 35.4955C205.922 35.5164 209.894 37.1836 212.815 40.1309C215.737 43.0782 217.37 47.0646 217.354 51.2145L216.592 231.354C216.583 233.411 216.17 235.445 215.375 237.342C214.58 239.239 213.419 240.961 211.959 242.409C210.498 243.858 208.767 245.004 206.864 245.783C204.96 246.562 202.922 246.959 200.865 246.951Z" fill="#455A64"/>
<path d="M201.664 41.6896H187.736C187.282 41.698 186.833 41.7959 186.417 41.9776C186 42.1594 185.624 42.4214 185.308 42.7487C184.993 43.0761 184.745 43.4624 184.579 43.8855C184.413 44.3086 184.332 44.7603 184.341 45.2147V47.7398C184.349 48.1939 184.268 48.6452 184.102 49.0679C183.936 49.4906 183.688 49.8764 183.373 50.2032C183.057 50.53 182.68 50.7913 182.264 50.9723C181.847 51.1532 181.399 51.2502 180.945 51.2577L153.795 51.1354C152.876 51.1109 152.005 50.7229 151.372 50.0566C150.74 49.3902 150.397 48.5001 150.421 47.5816V45.0564C150.444 44.1391 150.103 43.25 149.471 42.5839C148.84 41.9178 147.971 41.5289 147.054 41.5026H142.155L129.961 41.445C127.06 41.4278 124.271 42.5605 122.204 44.5951C120.137 46.6298 118.961 49.4006 118.932 52.3009L118.213 228.138C118.206 229.577 118.483 231.003 119.028 232.335C119.572 233.667 120.374 234.878 121.386 235.9C122.399 236.922 123.603 237.735 124.93 238.292C126.257 238.849 127.68 239.138 129.119 239.145L200.829 239.476C202.269 239.483 203.696 239.206 205.029 238.661C206.362 238.116 207.574 237.314 208.597 236.3C209.62 235.287 210.433 234.082 210.99 232.754C211.547 231.427 211.837 230.002 211.844 228.563L212.563 52.7253C212.58 49.8169 211.442 47.0206 209.398 44.9512C207.354 42.8818 204.572 41.7086 201.664 41.6896Z" fill="white"/>
<path d="M192.017 216.016L138.694 215.786C138.14 215.786 137.694 215.182 137.702 214.448L137.759 200.498C137.759 199.779 138.212 199.16 138.766 199.16L192.089 199.405C192.396 199.458 192.67 199.628 192.855 199.878C193.04 200.129 193.121 200.441 193.081 200.75L193.031 214.685C193.031 215.426 192.571 216.023 192.017 216.016Z" fill="#5900D9"/>
<path d="M154.906 209.339C154.612 209.339 154.329 209.292 154.057 209.197C153.789 209.099 153.582 208.975 153.435 208.824L153.599 208.501C153.739 208.637 153.925 208.752 154.159 208.847C154.397 208.937 154.646 208.982 154.906 208.982C155.155 208.982 155.357 208.952 155.512 208.892C155.67 208.828 155.786 208.743 155.857 208.637C155.933 208.531 155.97 208.414 155.97 208.286C155.97 208.131 155.925 208.007 155.835 207.913C155.748 207.818 155.633 207.745 155.489 207.692C155.346 207.635 155.187 207.586 155.014 207.545C154.84 207.503 154.667 207.46 154.493 207.415C154.32 207.365 154.159 207.301 154.012 207.222C153.869 207.143 153.752 207.039 153.661 206.911C153.574 206.779 153.531 206.607 153.531 206.396C153.531 206.2 153.582 206.02 153.684 205.858C153.789 205.692 153.95 205.56 154.165 205.462C154.38 205.36 154.655 205.309 154.991 205.309C155.214 205.309 155.435 205.341 155.653 205.405C155.872 205.466 156.061 205.551 156.219 205.66L156.078 205.994C155.908 205.881 155.727 205.798 155.535 205.745C155.346 205.692 155.163 205.666 154.986 205.666C154.748 205.666 154.552 205.698 154.397 205.762C154.242 205.826 154.127 205.913 154.052 206.022C153.98 206.128 153.944 206.249 153.944 206.384C153.944 206.539 153.988 206.664 154.074 206.758C154.165 206.852 154.282 206.926 154.425 206.979C154.572 207.032 154.733 207.079 154.906 207.12C155.08 207.162 155.252 207.207 155.421 207.256C155.595 207.305 155.753 207.369 155.897 207.449C156.044 207.524 156.161 207.626 156.248 207.754C156.338 207.882 156.384 208.05 156.384 208.258C156.384 208.45 156.331 208.63 156.225 208.796C156.119 208.958 155.957 209.09 155.738 209.192C155.523 209.29 155.246 209.339 154.906 209.339ZM157.296 209.305V205.343H157.715V209.305H157.296ZM160.742 209.339C160.44 209.339 160.161 209.29 159.904 209.192C159.651 209.09 159.43 208.948 159.242 208.767C159.057 208.586 158.912 208.373 158.806 208.128C158.704 207.882 158.653 207.615 158.653 207.324C158.653 207.033 158.704 206.766 158.806 206.52C158.912 206.275 159.059 206.062 159.247 205.881C159.436 205.7 159.657 205.56 159.91 205.462C160.166 205.36 160.446 205.309 160.747 205.309C161.049 205.309 161.325 205.356 161.574 205.451C161.827 205.545 162.042 205.688 162.219 205.881L161.959 206.147C161.793 205.981 161.61 205.862 161.41 205.79C161.21 205.718 160.995 205.683 160.764 205.683C160.519 205.683 160.293 205.724 160.085 205.807C159.881 205.886 159.702 206.001 159.547 206.152C159.397 206.3 159.278 206.473 159.191 206.673C159.108 206.869 159.066 207.086 159.066 207.324C159.066 207.558 159.108 207.775 159.191 207.975C159.278 208.175 159.397 208.35 159.547 208.501C159.702 208.648 159.881 208.763 160.085 208.847C160.293 208.926 160.517 208.965 160.759 208.965C160.985 208.965 161.198 208.931 161.398 208.863C161.602 208.796 161.789 208.68 161.959 208.518L162.196 208.835C162.008 209.001 161.787 209.128 161.534 209.214C161.281 209.297 161.017 209.339 160.742 209.339ZM161.794 208.784V207.324H162.196V208.835L161.794 208.784ZM163.382 209.305V205.343H163.727L166.461 208.784H166.28V205.343H166.693V209.305H166.348L163.619 205.864H163.801V209.305H163.382ZM171.063 209.339C170.558 209.339 170.16 209.194 169.869 208.903C169.579 208.613 169.433 208.182 169.433 207.613V205.343H169.852V207.596C169.852 208.064 169.958 208.409 170.169 208.631C170.38 208.854 170.678 208.965 171.063 208.965C171.452 208.965 171.752 208.854 171.963 208.631C172.175 208.409 172.28 208.064 172.28 207.596V205.343H172.688V207.613C172.688 208.182 172.543 208.613 172.252 208.903C171.965 209.194 171.569 209.339 171.063 209.339ZM173.95 209.305V205.343H175.433C175.769 205.343 176.057 205.398 176.299 205.507C176.54 205.613 176.725 205.767 176.853 205.971C176.986 206.171 177.052 206.415 177.052 206.701C177.052 206.981 176.986 207.222 176.853 207.426C176.725 207.626 176.54 207.781 176.299 207.89C176.057 207.999 175.769 208.054 175.433 208.054H174.182L174.369 207.856V209.305H173.95ZM174.369 207.89L174.182 207.686H175.421C175.818 207.686 176.118 207.601 176.321 207.432C176.529 207.258 176.633 207.015 176.633 206.701C176.633 206.384 176.529 206.139 176.321 205.966C176.118 205.792 175.818 205.705 175.421 205.705H174.182L174.369 205.507V207.89Z" fill="#E8E8E3"/>
<path d="M149.33 93.3791L130.827 93.2951L130.812 96.6907L149.315 96.7746L149.33 93.3791Z" fill="#290064"/>
<path d="M203.57 114.227C203.716 114.213 203.858 114.179 203.995 114.127C204.194 114.049 204.367 113.916 204.494 113.745C204.622 113.573 204.698 113.369 204.714 113.155C204.714 112.012 204.714 110.343 204.714 108.199C204.714 107.127 204.714 105.925 204.714 104.602C204.714 104.278 204.714 103.94 204.714 103.602C204.761 103.274 204.69 102.94 204.513 102.659C204.414 102.525 204.285 102.415 204.136 102.339C203.988 102.263 203.824 102.222 203.657 102.22H202.534H192.139L131.968 101.997C131.814 101.995 131.661 102.029 131.524 102.098C131.386 102.167 131.267 102.268 131.177 102.393C131.003 102.674 130.936 103.009 130.989 103.335C130.989 104.055 130.989 104.774 130.989 105.494C130.989 106.933 130.989 108.371 130.989 109.81C130.989 110.53 130.989 111.249 130.989 111.968C130.96 112.303 130.96 112.64 130.989 112.976C131.027 113.119 131.097 113.252 131.195 113.364C131.292 113.477 131.414 113.565 131.551 113.623C131.692 113.679 131.844 113.706 131.997 113.702H135.658L151.636 113.788L178.686 113.954L196.923 114.098L201.88 114.155H203.167C203.462 114.155 203.606 114.155 203.606 114.155H203.167H201.88H196.923H178.686L151.636 114.069L135.658 114.004H131.997C131.795 114.012 131.594 113.978 131.407 113.904C131.217 113.823 131.049 113.7 130.914 113.544C130.78 113.388 130.682 113.203 130.63 113.004C130.588 112.815 130.574 112.622 130.587 112.429V111.896C130.587 111.177 130.587 110.458 130.587 109.738C130.587 108.299 130.587 106.861 130.587 105.422C130.587 104.702 130.587 103.983 130.587 103.264C130.573 103.072 130.573 102.88 130.587 102.688C130.614 102.476 130.695 102.276 130.824 102.105C130.948 101.932 131.112 101.791 131.303 101.694C131.493 101.598 131.704 101.549 131.917 101.551L192.089 101.882L202.484 101.954H203.606C203.804 101.954 203.999 102.002 204.174 102.094C204.349 102.185 204.5 102.317 204.613 102.479C204.816 102.792 204.898 103.168 204.844 103.537C204.844 103.875 204.844 104.213 204.844 104.537C204.844 105.846 204.844 107.048 204.844 108.134C204.844 110.292 204.793 111.947 204.779 113.098C204.761 113.319 204.681 113.531 204.547 113.708C204.413 113.885 204.232 114.02 204.024 114.098C203.887 114.182 203.731 114.227 203.57 114.227Z" fill="#E0E0E0"/>
<path d="M170.226 105.609H136.385V108.781H170.226V105.609Z" fill="#6200EE"/>
<path d="M149.204 124.356L130.701 124.272L130.686 127.667L149.189 127.751L149.204 124.356Z" fill="#360083"/>
<path d="M203.103 145.205C203.248 145.187 203.392 145.161 203.534 145.126C203.735 145.062 203.92 144.956 204.077 144.814C204.233 144.673 204.357 144.499 204.441 144.306C204.554 144.015 204.598 143.703 204.57 143.392C204.57 143.047 204.57 142.673 204.57 142.255C204.57 141.421 204.57 140.471 204.57 139.378V134.81C204.605 134.479 204.532 134.146 204.362 133.86C204.184 133.567 203.905 133.349 203.578 133.248C203.219 133.184 202.854 133.165 202.491 133.191H192.139L132.176 132.968C131.854 132.969 131.543 133.086 131.301 133.3C131.058 133.513 130.902 133.806 130.86 134.126C130.86 134.81 130.86 135.565 130.86 136.284C130.86 137.723 130.86 139.162 130.86 140.601C130.86 141.32 130.86 142.04 130.86 142.759C130.833 143.095 130.848 143.433 130.903 143.766C130.993 144.058 131.178 144.311 131.428 144.486C131.694 144.654 132.006 144.735 132.32 144.716H133.32H135.399L151.32 144.795L178.276 144.96L196.448 145.104L201.391 145.162H196.448H178.276L151.306 145.133L135.385 145.075H132.256C131.867 145.099 131.48 144.995 131.155 144.781C130.828 144.554 130.589 144.221 130.479 143.838C130.414 143.473 130.395 143.1 130.421 142.73C130.421 142.011 130.421 141.291 130.421 140.572C130.421 139.133 130.421 137.694 130.421 136.256C130.421 135.536 130.421 134.817 130.421 134.097C130.474 133.686 130.674 133.308 130.985 133.034C131.297 132.76 131.697 132.608 132.112 132.608L192.074 132.939L202.427 133.018C202.812 132.995 203.199 133.021 203.578 133.097C203.951 133.219 204.267 133.476 204.462 133.817C204.649 134.134 204.729 134.501 204.693 134.867C204.693 135.205 204.693 135.536 204.693 135.867C204.693 137.169 204.693 138.363 204.693 139.464C204.693 140.565 204.693 141.493 204.693 142.342C204.693 142.752 204.693 143.133 204.693 143.486C204.719 143.807 204.667 144.131 204.542 144.428C204.448 144.626 204.313 144.803 204.145 144.944C203.978 145.086 203.782 145.189 203.57 145.248C203.413 145.261 203.255 145.246 203.103 145.205Z" fill="#E0E0E0"/>
<path d="M149.064 156.678L130.562 156.594L130.546 159.989L149.049 160.073L149.064 156.678Z" fill="#360083"/>
<path d="M202.959 177.513C203.104 177.496 203.248 177.47 203.391 177.434C203.591 177.371 203.775 177.265 203.931 177.125C204.087 176.985 204.212 176.813 204.297 176.621C204.41 176.331 204.454 176.018 204.426 175.708C204.426 175.355 204.426 174.988 204.426 174.564C204.426 173.737 204.426 172.78 204.426 171.686V167.118C204.461 166.787 204.388 166.454 204.218 166.168C204.036 165.881 203.758 165.666 203.434 165.564C203.076 165.498 202.711 165.476 202.347 165.499H191.995L132.033 165.276C131.71 165.277 131.399 165.395 131.157 165.608C130.915 165.821 130.758 166.115 130.716 166.435C130.716 167.154 130.716 167.873 130.716 168.593C130.716 170.032 130.716 171.47 130.716 172.909C130.716 173.629 130.716 174.348 130.716 175.067C130.689 175.401 130.704 175.737 130.759 176.067C130.845 176.361 131.031 176.615 131.284 176.787C131.549 176.959 131.862 177.04 132.177 177.017H135.306L151.226 177.103L178.183 177.269L196.355 177.413L201.297 177.47H196.355H178.183L151.226 177.391L135.306 177.326H132.177C131.787 177.353 131.4 177.249 131.076 177.031C130.748 176.805 130.51 176.472 130.4 176.089C130.335 175.724 130.316 175.351 130.342 174.981C130.342 174.262 130.342 173.542 130.342 172.823C130.342 171.384 130.342 169.945 130.342 168.507C130.342 167.787 130.342 167.068 130.342 166.312C130.393 165.902 130.592 165.524 130.902 165.249C131.212 164.975 131.612 164.824 132.025 164.823L191.988 165.154L202.34 165.233C202.726 165.21 203.113 165.236 203.491 165.312C203.865 165.434 204.18 165.691 204.376 166.032C204.562 166.349 204.643 166.716 204.606 167.082C204.606 167.42 204.606 167.758 204.606 168.082C204.606 169.384 204.606 170.578 204.606 171.679C204.606 172.78 204.606 173.708 204.606 174.557C204.606 174.967 204.606 175.348 204.606 175.701C204.634 176.022 204.582 176.346 204.455 176.643C204.362 176.841 204.227 177.018 204.059 177.159C203.892 177.301 203.695 177.404 203.484 177.463C203.315 177.521 203.135 177.538 202.959 177.513Z" fill="#E0E0E0"/>
<path d="M169.503 137.483L135.663 137.33L135.649 140.502L169.489 140.656L169.503 137.483Z" fill="#8133F1"/>
<path d="M138.723 171.643C138.702 171.932 138.596 172.209 138.419 172.439C138.242 172.669 138.001 172.842 137.727 172.936C137.453 173.03 137.157 173.042 136.876 172.97C136.595 172.897 136.341 172.744 136.146 172.529C135.952 172.314 135.824 172.046 135.78 171.76C135.736 171.473 135.777 171.179 135.899 170.916C136.02 170.652 136.216 170.43 136.462 170.276C136.708 170.123 136.994 170.046 137.284 170.053C137.685 170.076 138.061 170.255 138.33 170.553C138.6 170.85 138.741 171.242 138.723 171.643Z" fill="#8133F1"/>
<path d="M143.306 171.665C143.32 171.868 143.292 172.071 143.224 172.263C143.156 172.454 143.05 172.63 142.911 172.779C142.772 172.927 142.605 173.046 142.418 173.127C142.232 173.208 142.031 173.25 141.827 173.25C141.624 173.25 141.423 173.208 141.236 173.127C141.05 173.046 140.882 172.927 140.744 172.779C140.605 172.63 140.498 172.454 140.43 172.263C140.363 172.071 140.335 171.868 140.349 171.665C140.335 171.462 140.363 171.258 140.43 171.067C140.498 170.875 140.605 170.699 140.744 170.551C140.882 170.402 141.05 170.283 141.236 170.202C141.423 170.121 141.624 170.08 141.827 170.08C142.031 170.08 142.232 170.121 142.418 170.202C142.605 170.283 142.772 170.402 142.911 170.551C143.05 170.699 143.156 170.875 143.224 171.067C143.292 171.258 143.32 171.462 143.306 171.665Z" fill="#8133F1"/>
<path d="M147.896 171.686C147.874 171.976 147.769 172.252 147.592 172.482C147.414 172.712 147.174 172.885 146.899 172.979C146.625 173.074 146.329 173.085 146.048 173.013C145.767 172.941 145.513 172.787 145.319 172.572C145.124 172.357 144.997 172.09 144.953 171.803C144.909 171.516 144.95 171.223 145.071 170.959C145.192 170.695 145.388 170.473 145.634 170.32C145.881 170.166 146.167 170.089 146.457 170.096C146.857 170.121 147.232 170.301 147.501 170.598C147.77 170.895 147.911 171.286 147.896 171.686Z" fill="#8133F1"/>
<path d="M152.478 171.708C152.457 171.997 152.351 172.274 152.174 172.504C151.997 172.734 151.756 172.907 151.482 173.001C151.208 173.095 150.912 173.107 150.631 173.035C150.35 172.962 150.096 172.809 149.901 172.594C149.707 172.379 149.579 172.111 149.535 171.824C149.491 171.538 149.532 171.244 149.654 170.98C149.775 170.717 149.971 170.495 150.217 170.341C150.463 170.188 150.749 170.11 151.039 170.118C151.439 170.142 151.814 170.322 152.083 170.619C152.352 170.917 152.494 171.307 152.478 171.708Z" fill="#8133F1"/>
<path d="M157.061 171.722C157.041 172.012 156.936 172.29 156.76 172.52C156.584 172.751 156.343 172.925 156.069 173.021C155.795 173.116 155.498 173.129 155.217 173.057C154.935 172.986 154.681 172.833 154.486 172.618C154.29 172.403 154.162 172.135 154.118 171.848C154.073 171.561 154.114 171.267 154.235 171.003C154.356 170.739 154.552 170.517 154.799 170.363C155.045 170.21 155.332 170.132 155.622 170.14C156.021 170.164 156.394 170.343 156.663 170.638C156.932 170.934 157.075 171.323 157.061 171.722Z" fill="#8133F1"/>
<path d="M161.651 171.744C161.631 172.032 161.527 172.308 161.353 172.539C161.178 172.769 160.94 172.943 160.668 173.04C160.395 173.136 160.101 173.151 159.82 173.083C159.539 173.014 159.285 172.865 159.088 172.653C158.891 172.442 158.76 172.178 158.711 171.893C158.663 171.608 158.698 171.315 158.814 171.05C158.929 170.785 159.12 170.56 159.362 170.402C159.604 170.244 159.887 170.16 160.176 170.161C160.581 170.176 160.964 170.351 161.24 170.648C161.517 170.944 161.664 171.339 161.651 171.744Z" fill="#8133F1"/>
<path d="M166.233 171.765C166.247 171.968 166.22 172.172 166.152 172.363C166.084 172.555 165.977 172.731 165.839 172.879C165.7 173.028 165.532 173.147 165.346 173.228C165.159 173.309 164.958 173.351 164.755 173.351C164.551 173.351 164.35 173.309 164.164 173.228C163.977 173.147 163.81 173.028 163.671 172.879C163.532 172.731 163.426 172.555 163.358 172.363C163.29 172.172 163.262 171.968 163.276 171.765C163.262 171.563 163.29 171.359 163.358 171.167C163.426 170.976 163.532 170.8 163.671 170.651C163.81 170.503 163.977 170.384 164.164 170.303C164.35 170.222 164.551 170.18 164.755 170.18C164.958 170.18 165.159 170.222 165.346 170.303C165.532 170.384 165.7 170.503 165.839 170.651C165.977 170.8 166.084 170.976 166.152 171.167C166.22 171.359 166.247 171.563 166.233 171.765Z" fill="#8133F1"/>
<path d="M170.816 171.787C170.796 172.075 170.693 172.352 170.518 172.582C170.343 172.812 170.105 172.986 169.833 173.083C169.561 173.18 169.266 173.194 168.985 173.126C168.705 173.057 168.45 172.908 168.253 172.697C168.056 172.485 167.925 172.221 167.876 171.936C167.828 171.651 167.863 171.358 167.979 171.093C168.095 170.829 168.285 170.603 168.527 170.445C168.769 170.287 169.052 170.204 169.341 170.204C169.746 170.219 170.129 170.394 170.405 170.691C170.682 170.988 170.829 171.382 170.816 171.787Z" fill="#8133F1"/>
<path d="M175.398 171.809C175.379 172.098 175.274 172.376 175.098 172.607C174.921 172.838 174.681 173.012 174.407 173.107C174.132 173.203 173.836 173.215 173.555 173.144C173.273 173.072 173.019 172.919 172.823 172.704C172.628 172.489 172.5 172.222 172.455 171.935C172.411 171.648 172.452 171.354 172.573 171.09C172.694 170.826 172.89 170.603 173.136 170.449C173.383 170.296 173.669 170.218 173.96 170.226C174.358 170.25 174.732 170.429 175.001 170.725C175.27 171.02 175.412 171.409 175.398 171.809Z" fill="#8133F1"/>
<path d="M168.888 67.9551C169.388 67.735 169.812 67.3728 170.107 66.9136C170.403 66.4544 170.556 65.9184 170.55 65.3724C170.568 65.0175 170.514 64.6624 170.391 64.329C170.268 63.9955 170.079 63.6906 169.834 63.4327C169.589 63.1749 169.295 62.9696 168.968 62.8293C168.642 62.6889 168.29 62.6166 167.935 62.6166C167.579 62.6166 167.227 62.6889 166.901 62.8293C166.574 62.9696 166.28 63.1749 166.035 63.4327C165.79 63.6906 165.601 63.9955 165.478 64.329C165.355 64.6624 165.301 65.0175 165.32 65.3724C165.309 65.9239 165.461 66.4663 165.758 66.9311C166.055 67.3958 166.483 67.7622 166.989 67.9839C162.96 68.5882 163.14 72.9622 163.14 72.9622L172.665 73.0053C172.665 73.0053 172.888 68.5522 168.888 67.9551Z" fill="#8133F1"/>
<path d="M184.365 75.8264L150.417 75.6724L150.399 79.7298L184.347 79.8839L184.365 75.8264Z" fill="#5900D9"/>
<path d="M84.8472 68.6483C94.0247 72.4498 97.627 79.0735 94.5213 86.5713L83.2623 81.9077L83.2306 81.9842C78.0053 79.8198 72.3505 81.4905 70.6003 85.716C68.85 89.9414 71.6672 95.1214 76.8925 97.2858L88.1515 101.949L87.8662 102.638C84.8002 110.04 77.5693 112.177 68.3918 108.375L44.3601 98.4209C35.1826 94.6194 31.5803 87.9957 34.6464 80.5936L41.341 64.4312C44.4071 57.0291 51.638 54.8926 60.8155 58.6941L84.8472 68.6483ZM91.1717 89.0381C92.269 89.4927 92.8606 90.5804 92.4931 91.4678L90.1797 97.0529C89.8011 97.9306 88.6236 98.2785 87.5273 97.8366L78.4681 94.0841C75.8108 93.0172 74.1043 90.5944 74.3673 88.2623C74.6026 86.8445 75.5772 85.6845 77.0301 85.0934C78.4829 84.5022 80.2653 84.5404 81.8996 85.1975L91.1717 89.0381ZM82.1073 88.3087L81.2322 87.9462C80.697 87.7185 80.1095 87.6732 79.6008 87.8204C79.0921 87.9675 78.7046 88.2949 78.5246 88.7294C78.1469 89.641 78.7466 90.7587 79.8695 91.2361L80.7446 91.5986C81.8681 92.0639 83.0839 91.7047 83.4602 90.7962C83.8365 89.8878 83.2308 88.7741 82.1073 88.3087ZM70.2911 72.6805L55.2713 66.4591C54.157 65.9975 52.9498 66.3467 52.5637 67.2423C52.1861 68.1539 52.7857 69.2715 53.9086 69.7489L68.9284 75.9704C70.0519 76.4357 71.2677 76.0765 71.644 75.168C72.0203 74.2596 71.4146 73.1459 70.2911 72.6805Z" fill="#9654F4"/>
<defs>
<clipPath id="clip0_110_100">
<rect width="67" height="65" fill="white" transform="translate(66.766 210.365) rotate(-23.5)"/>
</clipPath>
</defs>
</svg>
